<mxfile host="app.diagrams.net" modified="2022-04-23T16:15:39.063Z" agent="5.0 (Windows NT 10.0; Win64; x64) AppleWebKit/537.36 (KHTML, like Gecko) Chrome/99.0.4844.84 Safari/537.36 OPR/85.0.4341.72" etag="mYb7eKRROXA3yCSXPYfX" version="17.4.5" type="github">
  <diagram id="7Qw6pbEeIzk2xIP6izjz" name="Page-1">
    <mxGraphModel dx="1067" dy="483" grid="1" gridSize="10" guides="1" tooltips="1" connect="1" arrows="1" fold="1" page="1" pageScale="1" pageWidth="827" pageHeight="1169" math="0" shadow="0">
      <root>
        <mxCell id="0" />
        <mxCell id="1" parent="0" />
        <mxCell id="CRHBmkcnd31kH2aSU4Qs-1" value="Funcionário" style="rounded=0;whiteSpace=wrap;html=1;" parent="1" vertex="1">
          <mxGeometry x="280" y="150" width="120" height="60" as="geometry" />
        </mxCell>
        <mxCell id="CRHBmkcnd31kH2aSU4Qs-2" value="" style="triangle;whiteSpace=wrap;html=1;rotation=-90;" parent="1" vertex="1">
          <mxGeometry x="310" y="220" width="60" height="80" as="geometry" />
        </mxCell>
        <mxCell id="CRHBmkcnd31kH2aSU4Qs-3" value="" style="endArrow=none;html=1;rounded=0;" parent="1" source="CRHBmkcnd31kH2aSU4Qs-2" target="CRHBmkcnd31kH2aSU4Qs-1" edge="1">
          <mxGeometry width="50" height="50" relative="1" as="geometry">
            <mxPoint x="268.37837837837833" y="242.4324324324325" as="sourcePoint" />
            <mxPoint x="180" y="260" as="targetPoint" />
          </mxGeometry>
        </mxCell>
        <mxCell id="CRHBmkcnd31kH2aSU4Qs-4" value="Funcionário de limpeza" style="rounded=0;whiteSpace=wrap;html=1;" parent="1" vertex="1">
          <mxGeometry x="120" y="330" width="120" height="60" as="geometry" />
        </mxCell>
        <mxCell id="CRHBmkcnd31kH2aSU4Qs-5" value="Secretário" style="rounded=0;whiteSpace=wrap;html=1;" parent="1" vertex="1">
          <mxGeometry x="280" y="330" width="120" height="60" as="geometry" />
        </mxCell>
        <mxCell id="CRHBmkcnd31kH2aSU4Qs-6" value="Pesquisador" style="rounded=0;whiteSpace=wrap;html=1;" parent="1" vertex="1">
          <mxGeometry x="440" y="330" width="120" height="60" as="geometry" />
        </mxCell>
        <mxCell id="CRHBmkcnd31kH2aSU4Qs-7" value="" style="endArrow=none;html=1;rounded=0;exitX=1;exitY=0;exitDx=0;exitDy=0;entryX=0;entryY=0;entryDx=0;entryDy=0;entryPerimeter=0;" parent="1" source="CRHBmkcnd31kH2aSU4Qs-4" target="CRHBmkcnd31kH2aSU4Qs-2" edge="1">
          <mxGeometry width="50" height="50" relative="1" as="geometry">
            <mxPoint x="220" y="330" as="sourcePoint" />
            <mxPoint x="250" y="290" as="targetPoint" />
          </mxGeometry>
        </mxCell>
        <mxCell id="CRHBmkcnd31kH2aSU4Qs-8" value="" style="endArrow=none;html=1;rounded=0;" parent="1" source="CRHBmkcnd31kH2aSU4Qs-2" target="CRHBmkcnd31kH2aSU4Qs-5" edge="1">
          <mxGeometry width="50" height="50" relative="1" as="geometry">
            <mxPoint x="330" y="270" as="sourcePoint" />
            <mxPoint x="380" y="220" as="targetPoint" />
          </mxGeometry>
        </mxCell>
        <mxCell id="CRHBmkcnd31kH2aSU4Qs-9" value="" style="endArrow=none;html=1;rounded=0;entryX=0;entryY=1;entryDx=0;entryDy=0;entryPerimeter=0;" parent="1" target="CRHBmkcnd31kH2aSU4Qs-2" edge="1">
          <mxGeometry width="50" height="50" relative="1" as="geometry">
            <mxPoint x="440" y="330" as="sourcePoint" />
            <mxPoint x="380" y="300" as="targetPoint" />
          </mxGeometry>
        </mxCell>
        <mxCell id="CRHBmkcnd31kH2aSU4Qs-10" value="" style="ellipse;whiteSpace=wrap;html=1;aspect=fixed;fillColor=#999999;" parent="1" vertex="1">
          <mxGeometry x="245" y="120" width="20" height="20" as="geometry" />
        </mxCell>
        <mxCell id="CRHBmkcnd31kH2aSU4Qs-11" value="" style="ellipse;whiteSpace=wrap;html=1;aspect=fixed;" parent="1" vertex="1">
          <mxGeometry x="380" y="120" width="20" height="20" as="geometry" />
        </mxCell>
        <mxCell id="CRHBmkcnd31kH2aSU4Qs-12" value="" style="ellipse;whiteSpace=wrap;html=1;aspect=fixed;" parent="1" vertex="1">
          <mxGeometry x="310" y="120" width="20" height="20" as="geometry" />
        </mxCell>
        <mxCell id="CRHBmkcnd31kH2aSU4Qs-13" value="" style="ellipse;whiteSpace=wrap;html=1;aspect=fixed;" parent="1" vertex="1">
          <mxGeometry x="280" y="120" width="20" height="20" as="geometry" />
        </mxCell>
        <mxCell id="CRHBmkcnd31kH2aSU4Qs-14" value="" style="ellipse;whiteSpace=wrap;html=1;aspect=fixed;" parent="1" vertex="1">
          <mxGeometry x="350" y="120" width="20" height="20" as="geometry" />
        </mxCell>
        <mxCell id="CRHBmkcnd31kH2aSU4Qs-15" value="" style="endArrow=none;html=1;rounded=0;exitX=0;exitY=0;exitDx=0;exitDy=0;" parent="1" source="CRHBmkcnd31kH2aSU4Qs-1" target="CRHBmkcnd31kH2aSU4Qs-10" edge="1">
          <mxGeometry width="50" height="50" relative="1" as="geometry">
            <mxPoint x="145" y="215" as="sourcePoint" />
            <mxPoint x="195" y="165" as="targetPoint" />
          </mxGeometry>
        </mxCell>
        <mxCell id="CRHBmkcnd31kH2aSU4Qs-16" value="" style="endArrow=none;html=1;rounded=0;exitX=0.083;exitY=0;exitDx=0;exitDy=0;exitPerimeter=0;" parent="1" source="CRHBmkcnd31kH2aSU4Qs-1" target="CRHBmkcnd31kH2aSU4Qs-13" edge="1">
          <mxGeometry width="50" height="50" relative="1" as="geometry">
            <mxPoint x="145" y="225" as="sourcePoint" />
            <mxPoint x="195" y="175" as="targetPoint" />
          </mxGeometry>
        </mxCell>
        <mxCell id="CRHBmkcnd31kH2aSU4Qs-17" value="" style="endArrow=none;html=1;rounded=0;entryX=0.917;entryY=0;entryDx=0;entryDy=0;entryPerimeter=0;" parent="1" source="CRHBmkcnd31kH2aSU4Qs-11" target="CRHBmkcnd31kH2aSU4Qs-1" edge="1">
          <mxGeometry width="50" height="50" relative="1" as="geometry">
            <mxPoint x="335" y="185" as="sourcePoint" />
            <mxPoint x="335" y="155" as="targetPoint" />
          </mxGeometry>
        </mxCell>
        <mxCell id="CRHBmkcnd31kH2aSU4Qs-18" value="" style="endArrow=none;html=1;rounded=0;exitX=0.667;exitY=0;exitDx=0;exitDy=0;exitPerimeter=0;" parent="1" source="CRHBmkcnd31kH2aSU4Qs-1" target="CRHBmkcnd31kH2aSU4Qs-14" edge="1">
          <mxGeometry width="50" height="50" relative="1" as="geometry">
            <mxPoint x="175" y="205" as="sourcePoint" />
            <mxPoint x="225" y="155" as="targetPoint" />
          </mxGeometry>
        </mxCell>
        <mxCell id="CRHBmkcnd31kH2aSU4Qs-19" value="" style="endArrow=none;html=1;rounded=0;exitX=0.333;exitY=0;exitDx=0;exitDy=0;exitPerimeter=0;" parent="1" source="CRHBmkcnd31kH2aSU4Qs-1" target="CRHBmkcnd31kH2aSU4Qs-12" edge="1">
          <mxGeometry width="50" height="50" relative="1" as="geometry">
            <mxPoint x="155" y="205" as="sourcePoint" />
            <mxPoint x="205" y="155" as="targetPoint" />
          </mxGeometry>
        </mxCell>
        <mxCell id="CRHBmkcnd31kH2aSU4Qs-20" value="&lt;u&gt;id_funcionario&lt;/u&gt;" style="text;html=1;align=center;verticalAlign=middle;resizable=0;points=[];autosize=1;strokeColor=none;fillColor=none;rotation=0;" parent="1" vertex="1">
          <mxGeometry x="180" y="100" width="90" height="20" as="geometry" />
        </mxCell>
        <mxCell id="CRHBmkcnd31kH2aSU4Qs-21" value="" style="ellipse;whiteSpace=wrap;html=1;aspect=fixed;" parent="1" vertex="1">
          <mxGeometry x="410" y="120" width="20" height="20" as="geometry" />
        </mxCell>
        <mxCell id="CRHBmkcnd31kH2aSU4Qs-23" value="" style="endArrow=none;html=1;rounded=0;exitX=1;exitY=0;exitDx=0;exitDy=0;" parent="1" source="CRHBmkcnd31kH2aSU4Qs-1" target="CRHBmkcnd31kH2aSU4Qs-21" edge="1">
          <mxGeometry width="50" height="50" relative="1" as="geometry">
            <mxPoint x="347.93" y="157.93000000000004" as="sourcePoint" />
            <mxPoint x="335.0010678118655" y="145.0010678118655" as="targetPoint" />
          </mxGeometry>
        </mxCell>
        <mxCell id="iezXjp6sgA-Jna7iGOo4-1" value="nome_funcionario" style="text;html=1;align=center;verticalAlign=middle;resizable=0;points=[];autosize=1;strokeColor=none;fillColor=none;rotation=0;" vertex="1" parent="1">
          <mxGeometry x="400" y="100" width="110" height="20" as="geometry" />
        </mxCell>
        <mxCell id="iezXjp6sgA-Jna7iGOo4-2" value="endereco" style="text;html=1;strokeColor=none;fillColor=none;align=center;verticalAlign=middle;whiteSpace=wrap;rounded=0;rotation=-90;" vertex="1" parent="1">
          <mxGeometry x="290" y="75" width="60" height="30" as="geometry" />
        </mxCell>
        <mxCell id="iezXjp6sgA-Jna7iGOo4-3" value="sexo" style="text;html=1;strokeColor=none;fillColor=none;align=center;verticalAlign=middle;whiteSpace=wrap;rounded=0;rotation=-90;" vertex="1" parent="1">
          <mxGeometry x="330" y="80" width="60" height="30" as="geometry" />
        </mxCell>
        <mxCell id="iezXjp6sgA-Jna7iGOo4-4" value="salario" style="text;html=1;strokeColor=none;fillColor=none;align=center;verticalAlign=middle;whiteSpace=wrap;rounded=0;rotation=-90;" vertex="1" parent="1">
          <mxGeometry x="360" y="80" width="60" height="30" as="geometry" />
        </mxCell>
        <mxCell id="iezXjp6sgA-Jna7iGOo4-5" value="aniversario" style="text;html=1;strokeColor=none;fillColor=none;align=center;verticalAlign=middle;whiteSpace=wrap;rounded=0;rotation=-90;" vertex="1" parent="1">
          <mxGeometry x="260" y="70" width="60" height="30" as="geometry" />
        </mxCell>
        <mxCell id="iezXjp6sgA-Jna7iGOo4-7" value="" style="ellipse;whiteSpace=wrap;html=1;aspect=fixed;" vertex="1" parent="1">
          <mxGeometry x="150" y="400" width="20" height="20" as="geometry" />
        </mxCell>
        <mxCell id="iezXjp6sgA-Jna7iGOo4-8" value="" style="ellipse;whiteSpace=wrap;html=1;aspect=fixed;" vertex="1" parent="1">
          <mxGeometry x="330" y="400" width="20" height="20" as="geometry" />
        </mxCell>
        <mxCell id="iezXjp6sgA-Jna7iGOo4-10" value="" style="ellipse;whiteSpace=wrap;html=1;aspect=fixed;" vertex="1" parent="1">
          <mxGeometry x="190" y="400" width="20" height="20" as="geometry" />
        </mxCell>
        <mxCell id="iezXjp6sgA-Jna7iGOo4-11" value="" style="ellipse;whiteSpace=wrap;html=1;aspect=fixed;" vertex="1" parent="1">
          <mxGeometry x="490" y="400" width="20" height="20" as="geometry" />
        </mxCell>
        <mxCell id="iezXjp6sgA-Jna7iGOo4-12" value="area_atuacao" style="text;html=1;strokeColor=none;fillColor=none;align=center;verticalAlign=middle;whiteSpace=wrap;rounded=0;rotation=0;" vertex="1" parent="1">
          <mxGeometry x="490" y="410" width="60" height="30" as="geometry" />
        </mxCell>
        <mxCell id="iezXjp6sgA-Jna7iGOo4-13" value="escolaridade" style="text;html=1;strokeColor=none;fillColor=none;align=center;verticalAlign=middle;whiteSpace=wrap;rounded=0;rotation=0;" vertex="1" parent="1">
          <mxGeometry x="330" y="410" width="60" height="30" as="geometry" />
        </mxCell>
        <mxCell id="iezXjp6sgA-Jna7iGOo4-14" value="cargo" style="text;html=1;strokeColor=none;fillColor=none;align=center;verticalAlign=middle;whiteSpace=wrap;rounded=0;rotation=0;" vertex="1" parent="1">
          <mxGeometry x="120" y="410" width="60" height="30" as="geometry" />
        </mxCell>
        <mxCell id="iezXjp6sgA-Jna7iGOo4-15" value="jornada_trabalho" style="text;html=1;strokeColor=none;fillColor=none;align=center;verticalAlign=middle;whiteSpace=wrap;rounded=0;rotation=0;" vertex="1" parent="1">
          <mxGeometry x="205" y="410" width="60" height="30" as="geometry" />
        </mxCell>
        <mxCell id="iezXjp6sgA-Jna7iGOo4-16" value="" style="endArrow=none;html=1;rounded=0;entryX=0.333;entryY=1;entryDx=0;entryDy=0;entryPerimeter=0;" edge="1" parent="1" source="iezXjp6sgA-Jna7iGOo4-7" target="CRHBmkcnd31kH2aSU4Qs-4">
          <mxGeometry width="50" height="50" relative="1" as="geometry">
            <mxPoint x="-30" y="470" as="sourcePoint" />
            <mxPoint x="20" y="420" as="targetPoint" />
          </mxGeometry>
        </mxCell>
        <mxCell id="iezXjp6sgA-Jna7iGOo4-17" value="" style="endArrow=none;html=1;rounded=0;" edge="1" parent="1" source="CRHBmkcnd31kH2aSU4Qs-5" target="iezXjp6sgA-Jna7iGOo4-8">
          <mxGeometry width="50" height="50" relative="1" as="geometry">
            <mxPoint x="150" y="470" as="sourcePoint" />
            <mxPoint x="200" y="420" as="targetPoint" />
          </mxGeometry>
        </mxCell>
        <mxCell id="iezXjp6sgA-Jna7iGOo4-18" value="" style="endArrow=none;html=1;rounded=0;exitX=0.667;exitY=1;exitDx=0;exitDy=0;exitPerimeter=0;" edge="1" parent="1" source="CRHBmkcnd31kH2aSU4Qs-4" target="iezXjp6sgA-Jna7iGOo4-10">
          <mxGeometry width="50" height="50" relative="1" as="geometry">
            <mxPoint x="310" y="490" as="sourcePoint" />
            <mxPoint x="360" y="440" as="targetPoint" />
          </mxGeometry>
        </mxCell>
        <mxCell id="iezXjp6sgA-Jna7iGOo4-19" value="" style="endArrow=none;html=1;rounded=0;" edge="1" parent="1" source="iezXjp6sgA-Jna7iGOo4-11" target="CRHBmkcnd31kH2aSU4Qs-6">
          <mxGeometry width="50" height="50" relative="1" as="geometry">
            <mxPoint x="409.9599999999999" y="399.99999999999994" as="sourcePoint" />
            <mxPoint x="410" y="409.99999999999994" as="targetPoint" />
          </mxGeometry>
        </mxCell>
        <mxCell id="iezXjp6sgA-Jna7iGOo4-20" value="Pertence" style="rhombus;whiteSpace=wrap;html=1;" vertex="1" parent="1">
          <mxGeometry x="440" y="140" width="80" height="80" as="geometry" />
        </mxCell>
        <mxCell id="iezXjp6sgA-Jna7iGOo4-21" value="" style="endArrow=none;html=1;rounded=0;" edge="1" parent="1" source="CRHBmkcnd31kH2aSU4Qs-1" target="iezXjp6sgA-Jna7iGOo4-20">
          <mxGeometry width="50" height="50" relative="1" as="geometry">
            <mxPoint x="125" y="265" as="sourcePoint" />
            <mxPoint x="175" y="215" as="targetPoint" />
          </mxGeometry>
        </mxCell>
        <mxCell id="iezXjp6sgA-Jna7iGOo4-22" value="Departamento" style="rounded=0;whiteSpace=wrap;html=1;" vertex="1" parent="1">
          <mxGeometry x="560" y="150" width="120" height="60" as="geometry" />
        </mxCell>
        <mxCell id="iezXjp6sgA-Jna7iGOo4-23" value="" style="endArrow=none;html=1;rounded=0;" edge="1" parent="1" source="iezXjp6sgA-Jna7iGOo4-20" target="iezXjp6sgA-Jna7iGOo4-22">
          <mxGeometry width="50" height="50" relative="1" as="geometry">
            <mxPoint x="465" y="185" as="sourcePoint" />
            <mxPoint x="515" y="135" as="targetPoint" />
          </mxGeometry>
        </mxCell>
        <mxCell id="iezXjp6sgA-Jna7iGOo4-24" value="(1,1)" style="text;html=1;strokeColor=none;fillColor=none;align=center;verticalAlign=middle;whiteSpace=wrap;rounded=0;" vertex="1" parent="1">
          <mxGeometry x="510" y="180" width="60" height="30" as="geometry" />
        </mxCell>
        <mxCell id="iezXjp6sgA-Jna7iGOo4-25" value="(n,m)" style="text;html=1;strokeColor=none;fillColor=none;align=center;verticalAlign=middle;whiteSpace=wrap;rounded=0;" vertex="1" parent="1">
          <mxGeometry x="390" y="180" width="60" height="30" as="geometry" />
        </mxCell>
        <mxCell id="iezXjp6sgA-Jna7iGOo4-26" value="" style="ellipse;whiteSpace=wrap;html=1;aspect=fixed;fillColor=#999999;" vertex="1" parent="1">
          <mxGeometry x="590" y="120" width="20" height="20" as="geometry" />
        </mxCell>
        <mxCell id="iezXjp6sgA-Jna7iGOo4-27" value="" style="ellipse;whiteSpace=wrap;html=1;aspect=fixed;" vertex="1" parent="1">
          <mxGeometry x="630" y="120" width="20" height="20" as="geometry" />
        </mxCell>
        <mxCell id="iezXjp6sgA-Jna7iGOo4-28" value="" style="endArrow=none;html=1;rounded=0;entryX=0.333;entryY=0;entryDx=0;entryDy=0;entryPerimeter=0;" edge="1" parent="1" source="iezXjp6sgA-Jna7iGOo4-26" target="iezXjp6sgA-Jna7iGOo4-22">
          <mxGeometry width="50" height="50" relative="1" as="geometry">
            <mxPoint x="495" y="305" as="sourcePoint" />
            <mxPoint x="545" y="255" as="targetPoint" />
          </mxGeometry>
        </mxCell>
        <mxCell id="iezXjp6sgA-Jna7iGOo4-29" value="" style="endArrow=none;html=1;rounded=0;exitX=0.667;exitY=0;exitDx=0;exitDy=0;exitPerimeter=0;" edge="1" parent="1" source="iezXjp6sgA-Jna7iGOo4-22" target="iezXjp6sgA-Jna7iGOo4-27">
          <mxGeometry width="50" height="50" relative="1" as="geometry">
            <mxPoint x="575" y="145" as="sourcePoint" />
            <mxPoint x="625" y="95" as="targetPoint" />
          </mxGeometry>
        </mxCell>
        <mxCell id="iezXjp6sgA-Jna7iGOo4-30" value="&lt;u&gt;numero&lt;/u&gt;" style="text;html=1;strokeColor=none;fillColor=none;align=center;verticalAlign=middle;whiteSpace=wrap;rounded=0;rotation=0;" vertex="1" parent="1">
          <mxGeometry x="570" y="95" width="60" height="30" as="geometry" />
        </mxCell>
        <mxCell id="iezXjp6sgA-Jna7iGOo4-31" value="nome_dptmento" style="text;html=1;strokeColor=none;fillColor=none;align=center;verticalAlign=middle;whiteSpace=wrap;rounded=0;rotation=0;" vertex="1" parent="1">
          <mxGeometry x="650" y="95" width="60" height="30" as="geometry" />
        </mxCell>
        <mxCell id="iezXjp6sgA-Jna7iGOo4-34" value="Possui" style="rhombus;whiteSpace=wrap;html=1;fillColor=#FFFFFF;" vertex="1" parent="1">
          <mxGeometry x="700" y="140" width="80" height="80" as="geometry" />
        </mxCell>
        <mxCell id="iezXjp6sgA-Jna7iGOo4-35" value="Projeto" style="rounded=0;whiteSpace=wrap;html=1;fillColor=#FFFFFF;" vertex="1" parent="1">
          <mxGeometry x="680" y="330" width="120" height="60" as="geometry" />
        </mxCell>
        <mxCell id="iezXjp6sgA-Jna7iGOo4-36" value="" style="endArrow=none;html=1;rounded=0;" edge="1" parent="1" source="iezXjp6sgA-Jna7iGOo4-22" target="iezXjp6sgA-Jna7iGOo4-34">
          <mxGeometry width="50" height="50" relative="1" as="geometry">
            <mxPoint x="620" y="210" as="sourcePoint" />
            <mxPoint x="670" y="160" as="targetPoint" />
          </mxGeometry>
        </mxCell>
        <mxCell id="iezXjp6sgA-Jna7iGOo4-38" value="" style="endArrow=none;html=1;rounded=0;" edge="1" parent="1" source="iezXjp6sgA-Jna7iGOo4-34" target="iezXjp6sgA-Jna7iGOo4-35">
          <mxGeometry width="50" height="50" relative="1" as="geometry">
            <mxPoint x="490" y="370" as="sourcePoint" />
            <mxPoint x="670" y="370" as="targetPoint" />
          </mxGeometry>
        </mxCell>
        <mxCell id="iezXjp6sgA-Jna7iGOo4-39" value="(1,1)" style="text;html=1;align=center;verticalAlign=middle;resizable=0;points=[];autosize=1;strokeColor=none;fillColor=none;" vertex="1" parent="1">
          <mxGeometry x="680" y="190" width="40" height="20" as="geometry" />
        </mxCell>
        <mxCell id="iezXjp6sgA-Jna7iGOo4-40" value="(0,n)" style="text;html=1;align=center;verticalAlign=middle;resizable=0;points=[];autosize=1;strokeColor=none;fillColor=none;" vertex="1" parent="1">
          <mxGeometry x="680" y="310" width="40" height="20" as="geometry" />
        </mxCell>
        <mxCell id="iezXjp6sgA-Jna7iGOo4-41" value="Trabalha" style="rhombus;whiteSpace=wrap;html=1;fillColor=#FFFFFF;" vertex="1" parent="1">
          <mxGeometry x="580" y="320" width="80" height="80" as="geometry" />
        </mxCell>
        <mxCell id="iezXjp6sgA-Jna7iGOo4-42" value="" style="endArrow=none;html=1;rounded=0;" edge="1" parent="1" source="CRHBmkcnd31kH2aSU4Qs-6" target="iezXjp6sgA-Jna7iGOo4-41">
          <mxGeometry width="50" height="50" relative="1" as="geometry">
            <mxPoint x="470" y="470" as="sourcePoint" />
            <mxPoint x="520" y="420" as="targetPoint" />
          </mxGeometry>
        </mxCell>
        <mxCell id="iezXjp6sgA-Jna7iGOo4-43" value="" style="endArrow=none;html=1;rounded=0;" edge="1" parent="1" source="iezXjp6sgA-Jna7iGOo4-35" target="iezXjp6sgA-Jna7iGOo4-41">
          <mxGeometry width="50" height="50" relative="1" as="geometry">
            <mxPoint x="490" y="370" as="sourcePoint" />
            <mxPoint x="550" y="370" as="targetPoint" />
          </mxGeometry>
        </mxCell>
        <mxCell id="iezXjp6sgA-Jna7iGOo4-44" value="(n,m)" style="text;html=1;align=center;verticalAlign=middle;resizable=0;points=[];autosize=1;strokeColor=none;fillColor=none;" vertex="1" parent="1">
          <mxGeometry x="560" y="370" width="40" height="20" as="geometry" />
        </mxCell>
        <mxCell id="iezXjp6sgA-Jna7iGOo4-45" value="(n,m)" style="text;html=1;align=center;verticalAlign=middle;resizable=0;points=[];autosize=1;strokeColor=none;fillColor=none;" vertex="1" parent="1">
          <mxGeometry x="640" y="370" width="40" height="20" as="geometry" />
        </mxCell>
        <mxCell id="iezXjp6sgA-Jna7iGOo4-46" value="" style="ellipse;whiteSpace=wrap;html=1;aspect=fixed;fillColor=#999999;" vertex="1" parent="1">
          <mxGeometry x="730" y="400" width="20" height="20" as="geometry" />
        </mxCell>
        <mxCell id="iezXjp6sgA-Jna7iGOo4-47" value="" style="ellipse;whiteSpace=wrap;html=1;aspect=fixed;fillColor=#FFFFFF;" vertex="1" parent="1">
          <mxGeometry x="700" y="400" width="20" height="20" as="geometry" />
        </mxCell>
        <mxCell id="iezXjp6sgA-Jna7iGOo4-48" value="" style="ellipse;whiteSpace=wrap;html=1;aspect=fixed;" vertex="1" parent="1">
          <mxGeometry x="760" y="400" width="20" height="20" as="geometry" />
        </mxCell>
        <mxCell id="iezXjp6sgA-Jna7iGOo4-49" value="" style="endArrow=none;html=1;rounded=0;" edge="1" parent="1" source="iezXjp6sgA-Jna7iGOo4-35" target="iezXjp6sgA-Jna7iGOo4-46">
          <mxGeometry width="50" height="50" relative="1" as="geometry">
            <mxPoint x="640" y="490" as="sourcePoint" />
            <mxPoint x="690" y="440" as="targetPoint" />
          </mxGeometry>
        </mxCell>
        <mxCell id="iezXjp6sgA-Jna7iGOo4-50" value="" style="endArrow=none;html=1;rounded=0;exitX=0.75;exitY=1;exitDx=0;exitDy=0;" edge="1" parent="1" source="iezXjp6sgA-Jna7iGOo4-35" target="iezXjp6sgA-Jna7iGOo4-48">
          <mxGeometry width="50" height="50" relative="1" as="geometry">
            <mxPoint x="750" y="400" as="sourcePoint" />
            <mxPoint x="750" y="410" as="targetPoint" />
          </mxGeometry>
        </mxCell>
        <mxCell id="iezXjp6sgA-Jna7iGOo4-51" value="" style="endArrow=none;html=1;rounded=0;entryX=0.25;entryY=1;entryDx=0;entryDy=0;" edge="1" parent="1" source="iezXjp6sgA-Jna7iGOo4-47" target="iezXjp6sgA-Jna7iGOo4-35">
          <mxGeometry width="50" height="50" relative="1" as="geometry">
            <mxPoint x="780" y="400" as="sourcePoint" />
            <mxPoint x="780" y="410" as="targetPoint" />
          </mxGeometry>
        </mxCell>
        <mxCell id="iezXjp6sgA-Jna7iGOo4-52" value="nome_projeto" style="text;html=1;strokeColor=none;fillColor=none;align=center;verticalAlign=middle;whiteSpace=wrap;rounded=0;rotation=-90;" vertex="1" parent="1">
          <mxGeometry x="680" y="450" width="60" height="30" as="geometry" />
        </mxCell>
        <mxCell id="iezXjp6sgA-Jna7iGOo4-53" value="&lt;u&gt;id&lt;/u&gt;" style="text;html=1;strokeColor=none;fillColor=none;align=center;verticalAlign=middle;whiteSpace=wrap;rounded=0;rotation=0;" vertex="1" parent="1">
          <mxGeometry x="710" y="420" width="60" height="30" as="geometry" />
        </mxCell>
        <mxCell id="iezXjp6sgA-Jna7iGOo4-54" value="tempo" style="text;html=1;strokeColor=none;fillColor=none;align=center;verticalAlign=middle;whiteSpace=wrap;rounded=0;rotation=0;" vertex="1" parent="1">
          <mxGeometry x="750" y="420" width="60" height="30" as="geometry" />
        </mxCell>
        <mxCell id="iezXjp6sgA-Jna7iGOo4-70" value="Pertence" style="rhombus;whiteSpace=wrap;html=1;fillColor=#FFFFFF;" vertex="1" parent="1">
          <mxGeometry x="160" y="140" width="80" height="80" as="geometry" />
        </mxCell>
        <mxCell id="iezXjp6sgA-Jna7iGOo4-71" value="Dependentes" style="rounded=0;whiteSpace=wrap;html=1;fillColor=#FFFFFF;" vertex="1" parent="1">
          <mxGeometry y="150" width="120" height="60" as="geometry" />
        </mxCell>
        <mxCell id="iezXjp6sgA-Jna7iGOo4-72" value="" style="endArrow=none;html=1;rounded=0;" edge="1" parent="1" source="CRHBmkcnd31kH2aSU4Qs-1" target="iezXjp6sgA-Jna7iGOo4-70">
          <mxGeometry width="50" height="50" relative="1" as="geometry">
            <mxPoint x="350" y="160" as="sourcePoint" />
            <mxPoint x="400" y="110" as="targetPoint" />
          </mxGeometry>
        </mxCell>
        <mxCell id="iezXjp6sgA-Jna7iGOo4-73" value="" style="endArrow=none;html=1;rounded=0;" edge="1" parent="1" source="iezXjp6sgA-Jna7iGOo4-71" target="iezXjp6sgA-Jna7iGOo4-70">
          <mxGeometry width="50" height="50" relative="1" as="geometry">
            <mxPoint x="350" y="160" as="sourcePoint" />
            <mxPoint x="400" y="110" as="targetPoint" />
          </mxGeometry>
        </mxCell>
        <mxCell id="iezXjp6sgA-Jna7iGOo4-74" value="(0,n)" style="text;html=1;strokeColor=none;fillColor=none;align=center;verticalAlign=middle;whiteSpace=wrap;rounded=0;" vertex="1" parent="1">
          <mxGeometry x="110" y="180" width="60" height="30" as="geometry" />
        </mxCell>
        <mxCell id="iezXjp6sgA-Jna7iGOo4-75" value="(1,1)" style="text;html=1;strokeColor=none;fillColor=none;align=center;verticalAlign=middle;whiteSpace=wrap;rounded=0;" vertex="1" parent="1">
          <mxGeometry x="230" y="180" width="60" height="30" as="geometry" />
        </mxCell>
        <mxCell id="iezXjp6sgA-Jna7iGOo4-77" value="" style="ellipse;whiteSpace=wrap;html=1;aspect=fixed;fillColor=#FFFFFF;" vertex="1" parent="1">
          <mxGeometry x="30" y="120" width="20" height="20" as="geometry" />
        </mxCell>
        <mxCell id="iezXjp6sgA-Jna7iGOo4-78" value="" style="ellipse;whiteSpace=wrap;html=1;aspect=fixed;fillColor=#FFFFFF;" vertex="1" parent="1">
          <mxGeometry x="70" y="120" width="20" height="20" as="geometry" />
        </mxCell>
        <mxCell id="iezXjp6sgA-Jna7iGOo4-79" value="" style="ellipse;whiteSpace=wrap;html=1;aspect=fixed;fillColor=#FFFFFF;" vertex="1" parent="1">
          <mxGeometry x="100" y="120" width="20" height="20" as="geometry" />
        </mxCell>
        <mxCell id="iezXjp6sgA-Jna7iGOo4-80" value="" style="ellipse;whiteSpace=wrap;html=1;aspect=fixed;fillColor=#999999;" vertex="1" parent="1">
          <mxGeometry y="120" width="20" height="20" as="geometry" />
        </mxCell>
        <mxCell id="iezXjp6sgA-Jna7iGOo4-81" value="" style="endArrow=none;html=1;rounded=0;" edge="1" parent="1" target="iezXjp6sgA-Jna7iGOo4-71">
          <mxGeometry width="50" height="50" relative="1" as="geometry">
            <mxPoint y="200" as="sourcePoint" />
            <mxPoint x="50" y="150" as="targetPoint" />
          </mxGeometry>
        </mxCell>
        <mxCell id="iezXjp6sgA-Jna7iGOo4-83" value="" style="endArrow=none;html=1;rounded=0;exitX=0.667;exitY=0;exitDx=0;exitDy=0;exitPerimeter=0;" edge="1" parent="1" source="iezXjp6sgA-Jna7iGOo4-71" target="iezXjp6sgA-Jna7iGOo4-78">
          <mxGeometry width="50" height="50" relative="1" as="geometry">
            <mxPoint x="70" y="150" as="sourcePoint" />
            <mxPoint x="120" y="100" as="targetPoint" />
          </mxGeometry>
        </mxCell>
        <mxCell id="iezXjp6sgA-Jna7iGOo4-84" value="" style="endArrow=none;html=1;rounded=0;exitX=0.917;exitY=0;exitDx=0;exitDy=0;exitPerimeter=0;" edge="1" parent="1" source="iezXjp6sgA-Jna7iGOo4-71" target="iezXjp6sgA-Jna7iGOo4-79">
          <mxGeometry width="50" height="50" relative="1" as="geometry">
            <mxPoint x="90.03999999999996" y="160" as="sourcePoint" />
            <mxPoint x="90" y="150" as="targetPoint" />
          </mxGeometry>
        </mxCell>
        <mxCell id="iezXjp6sgA-Jna7iGOo4-85" value="" style="endArrow=none;html=1;rounded=0;exitX=0.333;exitY=0;exitDx=0;exitDy=0;exitPerimeter=0;" edge="1" parent="1" source="iezXjp6sgA-Jna7iGOo4-71" target="iezXjp6sgA-Jna7iGOo4-77">
          <mxGeometry width="50" height="50" relative="1" as="geometry">
            <mxPoint x="120.03999999999996" y="160" as="sourcePoint" />
            <mxPoint x="120" y="150" as="targetPoint" />
          </mxGeometry>
        </mxCell>
        <mxCell id="iezXjp6sgA-Jna7iGOo4-86" value="" style="endArrow=none;html=1;rounded=0;exitX=0.083;exitY=0;exitDx=0;exitDy=0;exitPerimeter=0;" edge="1" parent="1" source="iezXjp6sgA-Jna7iGOo4-71" target="iezXjp6sgA-Jna7iGOo4-80">
          <mxGeometry width="50" height="50" relative="1" as="geometry">
            <mxPoint x="49.960000000000036" y="160" as="sourcePoint" />
            <mxPoint x="50" y="150" as="targetPoint" />
          </mxGeometry>
        </mxCell>
        <mxCell id="iezXjp6sgA-Jna7iGOo4-87" value="&lt;u&gt;nome&lt;/u&gt;" style="text;html=1;strokeColor=none;fillColor=none;align=center;verticalAlign=middle;whiteSpace=wrap;rounded=0;rotation=-90;" vertex="1" parent="1">
          <mxGeometry x="-20" y="89.37" width="60" height="20.63" as="geometry" />
        </mxCell>
        <mxCell id="iezXjp6sgA-Jna7iGOo4-88" value="sexo" style="text;html=1;strokeColor=none;fillColor=none;align=center;verticalAlign=middle;whiteSpace=wrap;rounded=0;rotation=-90;" vertex="1" parent="1">
          <mxGeometry x="10" y="84.68" width="60" height="30" as="geometry" />
        </mxCell>
        <mxCell id="iezXjp6sgA-Jna7iGOo4-89" value="parentesco" style="text;html=1;strokeColor=none;fillColor=none;align=center;verticalAlign=middle;whiteSpace=wrap;rounded=0;rotation=-90;" vertex="1" parent="1">
          <mxGeometry x="80" y="70.32" width="60" height="30" as="geometry" />
        </mxCell>
        <mxCell id="iezXjp6sgA-Jna7iGOo4-90" value="aniversario" style="text;html=1;strokeColor=none;fillColor=none;align=center;verticalAlign=middle;whiteSpace=wrap;rounded=0;rotation=-90;" vertex="1" parent="1">
          <mxGeometry x="50" y="70.32" width="60" height="30" as="geometry" />
        </mxCell>
      </root>
    </mxGraphModel>
  </diagram>
</mxfile>
